<svg xmlns="http://www.w3.org/2000/svg" xmlns:xlink="http://www.w3.org/1999/xlink" width="1366" zoomAndPan="magnify" viewBox="0 0 1024.5 576" height="768" preserveAspectRatio="xMidYMid meet" version="1.0"><defs><g/><clipPath id="c4ac94a4a6"><path d="M 220.3125 328 L 364.242188 328 L 364.242188 346.285156 L 220.3125 346.285156 Z M 220.3125 328 " clip-rule="nonzero"/></clipPath><clipPath id="d94159289f"><path d="M 254 229.34375 L 286 229.34375 L 286 330 L 254 330 Z M 254 229.34375 " clip-rule="nonzero"/></clipPath></defs><g clip-path="url(#c4ac94a4a6)"><path fill="#f5793b" d="M 220.433594 342.445312 C 251.496094 319.65625 330.441406 329.316406 364.113281 340.121094 C 300.988281 327.6875 251.636719 325.683594 223.492188 346.660156 Z M 220.433594 342.445312 " fill-opacity="1" fill-rule="evenodd"/></g><g clip-path="url(#d94159289f)"><path fill="#f5793b" d="M 264.132812 329.527344 L 254.023438 254.980469 L 280.507812 229.34375 L 285.171875 328.550781 L 284.296875 328.546875 L 274.027344 242.175781 L 256.640625 256.390625 L 264.667969 329.476562 Z M 264.132812 329.527344 " fill-opacity="1" fill-rule="evenodd"/></g><path fill="#f5793b" d="M 305.0625 275.433594 L 305.636719 249.207031 L 288.175781 233.519531 L 301.835938 250.976562 L 302.195312 277.539062 Z M 305.0625 275.433594 " fill-opacity="1" fill-rule="evenodd"/><path fill="#f5793b" d="M 317.191406 330.664062 L 317.886719 306.265625 L 314.90625 330.402344 Z M 299.847656 329.09375 L 298.746094 280.070312 L 319.597656 264.769531 L 318.378906 298.089844 L 315.527344 272.21875 L 301.136719 280.808594 L 300.234375 329.121094 Z M 299.847656 329.09375 " fill-opacity="1" fill-rule="evenodd"/><path fill="#f5793b" d="M 331.601562 334.523438 L 336.878906 277.957031 L 319.597656 264.769531 L 334.179688 278.738281 L 330.671875 334.390625 Z M 331.601562 334.523438 " fill-opacity="1" fill-rule="evenodd"/><g fill="#264e86" fill-opacity="1"><g transform="translate(379.512696, 289.727333)"><g><path d="M 14.328125 -46.671875 L 14.328125 -28.015625 L 31.953125 -28.015625 L 31.953125 -46.671875 L 42.078125 -46.671875 L 42.078125 0 L 32.078125 0 L 32.078125 -20.46875 L 14.328125 -20.46875 L 14.328125 0 L 4.328125 0 L 4.328125 -46.671875 Z M 14.328125 -46.671875 "/></g></g></g><g fill="#264e86" fill-opacity="1"><g transform="translate(426.108071, 289.727333)"><g><path d="M 36.015625 -46.671875 L 36.015625 -39.046875 L 14.78125 -39.046875 L 14.78125 -27.953125 L 34.65625 -27.953125 L 34.65625 -20.328125 L 14.78125 -20.328125 L 14.78125 -7.75 L 36.734375 -7.75 L 36.734375 0 L 4.78125 0 L 4.78125 -46.671875 Z M 36.015625 -46.671875 "/></g></g></g><g fill="#264e86" fill-opacity="1"><g transform="translate(465.539909, 289.727333)"><g><path d="M 14.65625 -46.609375 L 14.65625 -7.9375 L 34.65625 -7.9375 L 34.65625 0 L 4.453125 0 L 4.453125 -46.609375 Z M 14.65625 -46.609375 "/></g></g></g><g fill="#264e86" fill-opacity="1"><g transform="translate(501.422228, 289.727333)"><g><path d="M 13.875 -46.796875 L 13.875 0 L 3.875 0 L 3.875 -46.796875 Z M 13.875 -46.796875 "/></g></g></g><g fill="#264e86" fill-opacity="1"><g transform="translate(519.36341, 289.727333)"><g><path d="M 47.5 -23.75 C 47.5 -16.09375 45.519531 -10.023438 41.5625 -5.546875 C 37.601562 -1.078125 32.140625 1.15625 25.171875 1.15625 C 18.117188 1.15625 12.625 -0.9375 8.6875 -5.125 C 4.75 -9.320312 2.78125 -15.1875 2.78125 -22.71875 C 2.78125 -30.46875 4.734375 -36.554688 8.640625 -40.984375 C 12.554688 -45.421875 18.066406 -47.640625 25.171875 -47.640625 C 32.484375 -47.640625 38.03125 -45.421875 41.8125 -40.984375 C 45.601562 -36.554688 47.5 -30.8125 47.5 -23.75 Z M 24.984375 -6.203125 C 29.242188 -6.203125 32.316406 -7.789062 34.203125 -10.96875 C 36.097656 -14.15625 37.046875 -18.503906 37.046875 -24.015625 C 37.046875 -29.003906 36.023438 -32.992188 33.984375 -35.984375 C 31.941406 -38.972656 29.046875 -40.46875 25.296875 -40.46875 C 21.335938 -40.46875 18.335938 -38.992188 16.296875 -36.046875 C 14.253906 -33.097656 13.234375 -28.914062 13.234375 -23.5 C 13.234375 -17.6875 14.242188 -13.347656 16.265625 -10.484375 C 18.285156 -7.628906 21.191406 -6.203125 24.984375 -6.203125 Z M 24.984375 -6.203125 "/></g></g></g><g fill="#264e86" fill-opacity="1"><g transform="translate(569.572849, 289.727333)"><g><path d="M 11.6875 -46.46875 L 23.875 -9.875 L 36.140625 -46.46875 L 46.015625 -46.46875 L 28.859375 0 L 17.9375 0 L 0.78125 -46.46875 Z M 11.6875 -46.46875 "/></g></g></g><g fill="#264e86" fill-opacity="1"><g transform="translate(616.168224, 289.727333)"><g><path d="M 13.875 -46.796875 L 13.875 0 L 3.875 0 L 3.875 -46.796875 Z M 13.875 -46.796875 "/></g></g></g><g fill="#264e86" fill-opacity="1"><g transform="translate(634.109405, 289.727333)"><g><path d="M 36.015625 -46.671875 L 36.015625 -39.046875 L 14.78125 -39.046875 L 14.78125 -27.953125 L 34.65625 -27.953125 L 34.65625 -20.328125 L 14.78125 -20.328125 L 14.78125 -7.75 L 36.734375 -7.75 L 36.734375 0 L 4.78125 0 L 4.78125 -46.671875 Z M 36.015625 -46.671875 "/></g></g></g><g fill="#264e86" fill-opacity="1"><g transform="translate(673.541243, 289.727333)"><g><path d="M 11.296875 -46.46875 L 18.53125 -11.625 L 27.625 -46.46875 L 38.921875 -46.46875 L 47.125 -11.625 L 54.671875 -46.46875 L 64.21875 -46.46875 L 52.34375 0.125 L 41.25 0.125 L 32.796875 -35.5 L 23.6875 0.125 L 12.328125 0.125 L 0.96875 -46.46875 Z M 11.296875 -46.46875 "/></g></g></g><g fill="#264e86" fill-opacity="1"><g transform="translate(738.077799, 289.727333)"><g><path d="M 38.921875 -33.625 L 38.921875 -33.3125 L 29.296875 -33.3125 L 29.296875 -33.625 C 29.085938 -35.78125 28.347656 -37.445312 27.078125 -38.625 C 25.804688 -39.8125 24.03125 -40.40625 21.75 -40.40625 C 19.507812 -40.40625 17.671875 -39.851562 16.234375 -38.75 C 14.796875 -37.65625 14.078125 -36.097656 14.078125 -34.078125 C 14.078125 -31.835938 15.109375 -30.285156 17.171875 -29.421875 C 19.234375 -28.566406 22.242188 -27.6875 26.203125 -26.78125 C 31.285156 -25.664062 34.890625 -24.085938 37.015625 -22.046875 C 39.148438 -20.003906 40.21875 -17.347656 40.21875 -14.078125 C 40.21875 -9.515625 38.382812 -5.84375 34.71875 -3.0625 C 31.0625 -0.289062 26.332031 1.09375 20.53125 1.09375 C 14.25 1.09375 9.632812 -0.21875 6.6875 -2.84375 C 3.738281 -5.46875 2.265625 -9.488281 2.265625 -14.90625 L 12.453125 -14.90625 L 12.453125 -14.515625 C 12.453125 -11.597656 13.179688 -9.457031 14.640625 -8.09375 C 16.109375 -6.738281 18.195312 -6.0625 20.90625 -6.0625 C 23.40625 -6.0625 25.503906 -6.617188 27.203125 -7.734375 C 28.898438 -8.859375 29.75 -10.5 29.75 -12.65625 C 29.75 -13.988281 29.363281 -15.082031 28.59375 -15.9375 C 27.820312 -16.800781 25.367188 -17.75 21.234375 -18.78125 C 13.960938 -20.539062 9.226562 -22.550781 7.03125 -24.8125 C 4.84375 -27.070312 3.75 -29.773438 3.75 -32.921875 C 3.75 -37.441406 5.394531 -40.988281 8.6875 -43.5625 C 11.976562 -46.144531 16.484375 -47.4375 22.203125 -47.4375 C 27.367188 -47.4375 31.445312 -46.21875 34.4375 -43.78125 C 37.425781 -41.351562 38.921875 -37.96875 38.921875 -33.625 Z M 38.921875 -33.625 "/></g></g></g><g fill="#264e86" fill-opacity="1"><g transform="translate(379.512696, 326.722288)"><g><path d="M 3.4375 -14.46875 L 3.4375 0 L 2.140625 0 L 2.140625 -14.46875 Z M 3.4375 -14.46875 "/></g></g></g><g fill="#264e86" fill-opacity="1"><g transform="translate(385.059385, 326.722288)"><g><path d="M 3.296875 -14.40625 L 3.296875 -1.203125 L 10.53125 -1.203125 L 10.53125 0 L 2 0 L 2 -14.40625 Z M 3.296875 -14.40625 "/></g></g></g><g fill="#264e86" fill-opacity="1"><g transform="translate(396.152782, 326.722288)"><g><path d="M 3.296875 -14.40625 L 3.296875 -1.203125 L 10.53125 -1.203125 L 10.53125 0 L 2 0 L 2 -14.40625 Z M 3.296875 -14.40625 "/></g></g></g><g fill="#264e86" fill-opacity="1"><g transform="translate(407.246179, 326.722288)"><g><path d="M 3.234375 -14.40625 L 3.234375 -5.25 C 3.234375 -3.945312 3.59375 -2.894531 4.3125 -2.09375 C 5.03125 -1.289062 5.992188 -0.890625 7.203125 -0.890625 C 8.441406 -0.890625 9.410156 -1.285156 10.109375 -2.078125 C 10.816406 -2.867188 11.171875 -3.945312 11.171875 -5.3125 L 11.171875 -14.40625 L 12.46875 -14.40625 L 12.46875 -5.234375 C 12.46875 -3.535156 12.007812 -2.1875 11.09375 -1.1875 C 10.175781 -0.195312 8.878906 0.296875 7.203125 0.296875 C 5.535156 0.296875 4.238281 -0.191406 3.3125 -1.171875 C 2.394531 -2.160156 1.9375 -3.5 1.9375 -5.1875 L 1.9375 -14.40625 Z M 3.234375 -14.40625 "/></g></g></g><g fill="#264e86" fill-opacity="1"><g transform="translate(421.651629, 326.722288)"><g><path d="M 4.015625 -14.40625 L 9.421875 -1.859375 L 14.9375 -14.40625 L 16.921875 -14.40625 L 16.921875 0 L 15.625 0 L 15.625 -13.3125 L 15.578125 -13.3125 L 10.078125 0 L 8.78125 0 L 3.265625 -13.25 L 3.234375 -13.25 L 3.234375 0 L 1.9375 0 L 1.9375 -14.40625 Z M 4.015625 -14.40625 "/></g></g></g><g fill="#264e86" fill-opacity="1"><g transform="translate(440.48645, 326.722288)"><g><path d="M 3.4375 -14.46875 L 3.4375 0 L 2.140625 0 L 2.140625 -14.46875 Z M 3.4375 -14.46875 "/></g></g></g><g fill="#264e86" fill-opacity="1"><g transform="translate(446.033139, 326.722288)"><g><path d="M 3.3125 -14.40625 L 11.25 -1.734375 L 11.296875 -1.734375 L 11.296875 -14.40625 L 12.59375 -14.40625 L 12.59375 0 L 10.953125 0 L 3.171875 -12.453125 L 3.125 -12.453125 L 3.125 0 L 1.828125 0 L 1.828125 -14.40625 Z M 3.3125 -14.40625 "/></g></g></g><g fill="#264e86" fill-opacity="1"><g transform="translate(460.438589, 326.722288)"><g><path d="M 7.40625 -14.40625 L 13.15625 0 L 11.734375 0 L 10.203125 -3.890625 L 3.03125 -3.890625 L 1.515625 0 L 0.171875 0 L 5.890625 -14.40625 Z M 3.453125 -5.09375 L 9.734375 -5.09375 L 6.625 -13.203125 Z M 3.453125 -5.09375 "/></g></g></g><g fill="#264e86" fill-opacity="1"><g transform="translate(473.746663, 326.722288)"><g><path d="M 10.8125 -14.40625 L 10.8125 -13.203125 L 6.25 -13.203125 L 6.21875 0 L 4.953125 0 L 4.921875 -13.203125 L 0.28125 -13.203125 L 0.28125 -14.40625 Z M 10.8125 -14.40625 "/></g></g></g><g fill="#264e86" fill-opacity="1"><g transform="translate(484.840059, 326.722288)"><g><path d="M 10.59375 -14.40625 L 10.59375 -13.203125 L 3.328125 -13.203125 L 3.328125 -8.046875 L 10.3125 -8.046875 L 10.3125 -6.84375 L 3.328125 -6.84375 L 3.328125 -1.203125 L 10.890625 -1.203125 L 10.890625 0 L 2.03125 0 L 2.03125 -14.40625 Z M 10.59375 -14.40625 "/></g></g></g><g fill="#264e86" fill-opacity="1"><g transform="translate(497.030815, 326.722288)"><g/></g></g><g fill="#264e86" fill-opacity="1"><g transform="translate(502.577504, 326.722288)"><g><path d="M 1.8125 -14.40625 L 6.21875 -7.4375 L 10.640625 -14.40625 L 12.03125 -14.40625 L 6.765625 -6.265625 L 6.765625 0 L 5.46875 0 L 5.46875 -6.21875 L 0.15625 -14.40625 Z M 1.8125 -14.40625 "/></g></g></g><g fill="#264e86" fill-opacity="1"><g transform="translate(514.76826, 326.722288)"><g><path d="M 14.1875 -7.203125 C 14.1875 -4.910156 13.617188 -3.085938 12.484375 -1.734375 C 11.359375 -0.390625 9.785156 0.285156 7.765625 0.296875 C 5.742188 0.296875 4.171875 -0.375 3.046875 -1.71875 C 1.929688 -3.070312 1.363281 -4.898438 1.34375 -7.203125 C 1.34375 -9.503906 1.90625 -11.328125 3.03125 -12.671875 C 4.164062 -14.015625 5.742188 -14.691406 7.765625 -14.703125 C 9.785156 -14.703125 11.359375 -14.023438 12.484375 -12.671875 C 13.609375 -11.316406 14.175781 -9.492188 14.1875 -7.203125 Z M 7.765625 -0.890625 C 9.328125 -0.890625 10.554688 -1.472656 11.453125 -2.640625 C 12.347656 -3.816406 12.796875 -5.335938 12.796875 -7.203125 C 12.796875 -9.117188 12.34375 -10.648438 11.4375 -11.796875 C 10.539062 -12.941406 9.304688 -13.515625 7.734375 -13.515625 C 6.210938 -13.515625 5.003906 -12.941406 4.109375 -11.796875 C 3.222656 -10.648438 2.765625 -9.117188 2.734375 -7.203125 C 2.734375 -5.367188 3.164062 -3.863281 4.03125 -2.6875 C 4.90625 -1.519531 6.148438 -0.921875 7.765625 -0.890625 Z M 7.765625 -0.890625 "/></g></g></g><g fill="#264e86" fill-opacity="1"><g transform="translate(530.291028, 326.722288)"><g><path d="M 3.234375 -14.40625 L 3.234375 -5.25 C 3.234375 -3.945312 3.59375 -2.894531 4.3125 -2.09375 C 5.03125 -1.289062 5.992188 -0.890625 7.203125 -0.890625 C 8.441406 -0.890625 9.410156 -1.285156 10.109375 -2.078125 C 10.816406 -2.867188 11.171875 -3.945312 11.171875 -5.3125 L 11.171875 -14.40625 L 12.46875 -14.40625 L 12.46875 -5.234375 C 12.46875 -3.535156 12.007812 -2.1875 11.09375 -1.1875 C 10.175781 -0.195312 8.878906 0.296875 7.203125 0.296875 C 5.535156 0.296875 4.238281 -0.191406 3.3125 -1.171875 C 2.394531 -2.160156 1.9375 -3.5 1.9375 -5.1875 L 1.9375 -14.40625 Z M 3.234375 -14.40625 "/></g></g></g><g fill="#264e86" fill-opacity="1"><g transform="translate(544.696478, 326.722288)"><g><path d="M 7.0625 -14.40625 C 8.5 -14.40625 9.617188 -14.085938 10.421875 -13.453125 C 11.222656 -12.828125 11.625 -11.894531 11.625 -10.65625 C 11.625 -9.894531 11.378906 -9.238281 10.890625 -8.6875 C 10.410156 -8.144531 9.734375 -7.765625 8.859375 -7.546875 L 8.859375 -7.5 C 9.679688 -7.363281 10.285156 -7.007812 10.671875 -6.4375 C 11.054688 -5.875 11.289062 -4.773438 11.375 -3.140625 C 11.46875 -1.515625 11.6875 -0.46875 12.03125 0 L 10.53125 0 C 10.28125 -0.632812 10.101562 -1.703125 10 -3.203125 C 9.90625 -4.703125 9.691406 -5.6875 9.359375 -6.15625 C 9.023438 -6.625 8.257812 -6.859375 7.0625 -6.859375 L 3.359375 -6.859375 L 3.359375 0 L 2.0625 0 L 2.0625 -14.40625 Z M 6.390625 -8.0625 C 7.753906 -8.0625 8.734375 -8.265625 9.328125 -8.671875 C 9.929688 -9.085938 10.234375 -9.742188 10.234375 -10.640625 C 10.234375 -11.523438 9.96875 -12.171875 9.4375 -12.578125 C 8.914062 -12.992188 8.140625 -13.203125 7.109375 -13.203125 L 3.359375 -13.203125 L 3.359375 -8.0625 Z M 6.390625 -8.0625 "/></g></g></g><g fill="#264e86" fill-opacity="1"><g transform="translate(558.004551, 326.722288)"><g/></g></g><g fill="#264e86" fill-opacity="1"><g transform="translate(563.55124, 326.722288)"><g><path d="M 5.984375 -14.40625 C 7.804688 -14.40625 9.179688 -14.054688 10.109375 -13.359375 C 11.035156 -12.671875 11.5 -11.660156 11.5 -10.328125 C 11.5 -8.972656 11.023438 -7.957031 10.078125 -7.28125 C 9.128906 -6.601562 7.753906 -6.265625 5.953125 -6.265625 L 3.296875 -6.265625 L 3.296875 0 L 2 0 L 2 -14.40625 Z M 6.546875 -7.46875 C 7.691406 -7.46875 8.566406 -7.707031 9.171875 -8.1875 C 9.785156 -8.664062 10.09375 -9.378906 10.09375 -10.328125 C 10.09375 -12.242188 8.867188 -13.203125 6.421875 -13.203125 L 3.296875 -13.203125 L 3.296875 -7.46875 Z M 6.546875 -7.46875 "/></g></g></g><g fill="#264e86" fill-opacity="1"><g transform="translate(575.741996, 326.722288)"><g><path d="M 7.0625 -14.40625 C 8.5 -14.40625 9.617188 -14.085938 10.421875 -13.453125 C 11.222656 -12.828125 11.625 -11.894531 11.625 -10.65625 C 11.625 -9.894531 11.378906 -9.238281 10.890625 -8.6875 C 10.410156 -8.144531 9.734375 -7.765625 8.859375 -7.546875 L 8.859375 -7.5 C 9.679688 -7.363281 10.285156 -7.007812 10.671875 -6.4375 C 11.054688 -5.875 11.289062 -4.773438 11.375 -3.140625 C 11.46875 -1.515625 11.6875 -0.46875 12.03125 0 L 10.53125 0 C 10.28125 -0.632812 10.101562 -1.703125 10 -3.203125 C 9.90625 -4.703125 9.691406 -5.6875 9.359375 -6.15625 C 9.023438 -6.625 8.257812 -6.859375 7.0625 -6.859375 L 3.359375 -6.859375 L 3.359375 0 L 2.0625 0 L 2.0625 -14.40625 Z M 6.390625 -8.0625 C 7.753906 -8.0625 8.734375 -8.265625 9.328125 -8.671875 C 9.929688 -9.085938 10.234375 -9.742188 10.234375 -10.640625 C 10.234375 -11.523438 9.96875 -12.171875 9.4375 -12.578125 C 8.914062 -12.992188 8.140625 -13.203125 7.109375 -13.203125 L 3.359375 -13.203125 L 3.359375 -8.0625 Z M 6.390625 -8.0625 "/></g></g></g><g fill="#264e86" fill-opacity="1"><g transform="translate(589.050069, 326.722288)"><g><path d="M 14.1875 -7.203125 C 14.1875 -4.910156 13.617188 -3.085938 12.484375 -1.734375 C 11.359375 -0.390625 9.785156 0.285156 7.765625 0.296875 C 5.742188 0.296875 4.171875 -0.375 3.046875 -1.71875 C 1.929688 -3.070312 1.363281 -4.898438 1.34375 -7.203125 C 1.34375 -9.503906 1.90625 -11.328125 3.03125 -12.671875 C 4.164062 -14.015625 5.742188 -14.691406 7.765625 -14.703125 C 9.785156 -14.703125 11.359375 -14.023438 12.484375 -12.671875 C 13.609375 -11.316406 14.175781 -9.492188 14.1875 -7.203125 Z M 7.765625 -0.890625 C 9.328125 -0.890625 10.554688 -1.472656 11.453125 -2.640625 C 12.347656 -3.816406 12.796875 -5.335938 12.796875 -7.203125 C 12.796875 -9.117188 12.34375 -10.648438 11.4375 -11.796875 C 10.539062 -12.941406 9.304688 -13.515625 7.734375 -13.515625 C 6.210938 -13.515625 5.003906 -12.941406 4.109375 -11.796875 C 3.222656 -10.648438 2.765625 -9.117188 2.734375 -7.203125 C 2.734375 -5.367188 3.164062 -3.863281 4.03125 -2.6875 C 4.90625 -1.519531 6.148438 -0.921875 7.765625 -0.890625 Z M 7.765625 -0.890625 "/></g></g></g><g fill="#264e86" fill-opacity="1"><g transform="translate(604.572837, 326.722288)"><g><path d="M 5.984375 -14.40625 C 7.804688 -14.40625 9.179688 -14.054688 10.109375 -13.359375 C 11.035156 -12.671875 11.5 -11.660156 11.5 -10.328125 C 11.5 -8.972656 11.023438 -7.957031 10.078125 -7.28125 C 9.128906 -6.601562 7.753906 -6.265625 5.953125 -6.265625 L 3.296875 -6.265625 L 3.296875 0 L 2 0 L 2 -14.40625 Z M 6.546875 -7.46875 C 7.691406 -7.46875 8.566406 -7.707031 9.171875 -8.1875 C 9.785156 -8.664062 10.09375 -9.378906 10.09375 -10.328125 C 10.09375 -12.242188 8.867188 -13.203125 6.421875 -13.203125 L 3.296875 -13.203125 L 3.296875 -7.46875 Z M 6.546875 -7.46875 "/></g></g></g><g fill="#264e86" fill-opacity="1"><g transform="translate(616.763593, 326.722288)"><g><path d="M 10.59375 -14.40625 L 10.59375 -13.203125 L 3.328125 -13.203125 L 3.328125 -8.046875 L 10.3125 -8.046875 L 10.3125 -6.84375 L 3.328125 -6.84375 L 3.328125 -1.203125 L 10.890625 -1.203125 L 10.890625 0 L 2.03125 0 L 2.03125 -14.40625 Z M 10.59375 -14.40625 "/></g></g></g><g fill="#264e86" fill-opacity="1"><g transform="translate(628.954348, 326.722288)"><g><path d="M 7.0625 -14.40625 C 8.5 -14.40625 9.617188 -14.085938 10.421875 -13.453125 C 11.222656 -12.828125 11.625 -11.894531 11.625 -10.65625 C 11.625 -9.894531 11.378906 -9.238281 10.890625 -8.6875 C 10.410156 -8.144531 9.734375 -7.765625 8.859375 -7.546875 L 8.859375 -7.5 C 9.679688 -7.363281 10.285156 -7.007812 10.671875 -6.4375 C 11.054688 -5.875 11.289062 -4.773438 11.375 -3.140625 C 11.46875 -1.515625 11.6875 -0.46875 12.03125 0 L 10.53125 0 C 10.28125 -0.632812 10.101562 -1.703125 10 -3.203125 C 9.90625 -4.703125 9.691406 -5.6875 9.359375 -6.15625 C 9.023438 -6.625 8.257812 -6.859375 7.0625 -6.859375 L 3.359375 -6.859375 L 3.359375 0 L 2.0625 0 L 2.0625 -14.40625 Z M 6.390625 -8.0625 C 7.753906 -8.0625 8.734375 -8.265625 9.328125 -8.671875 C 9.929688 -9.085938 10.234375 -9.742188 10.234375 -10.640625 C 10.234375 -11.523438 9.96875 -12.171875 9.4375 -12.578125 C 8.914062 -12.992188 8.140625 -13.203125 7.109375 -13.203125 L 3.359375 -13.203125 L 3.359375 -8.0625 Z M 6.390625 -8.0625 "/></g></g></g><g fill="#264e86" fill-opacity="1"><g transform="translate(642.262422, 326.722288)"><g><path d="M 10.8125 -14.40625 L 10.8125 -13.203125 L 6.25 -13.203125 L 6.21875 0 L 4.953125 0 L 4.921875 -13.203125 L 0.28125 -13.203125 L 0.28125 -14.40625 Z M 10.8125 -14.40625 "/></g></g></g><g fill="#264e86" fill-opacity="1"><g transform="translate(653.355818, 326.722288)"><g><path d="M 1.8125 -14.40625 L 6.21875 -7.4375 L 10.640625 -14.40625 L 12.03125 -14.40625 L 6.765625 -6.265625 L 6.765625 0 L 5.46875 0 L 5.46875 -6.21875 L 0.15625 -14.40625 Z M 1.8125 -14.40625 "/></g></g></g><g fill="#264e86" fill-opacity="1"><g transform="translate(665.546574, 326.722288)"><g><path d="M 4.09375 -14.40625 L 2.65625 -10.3125 L 1.609375 -10.3125 L 2.46875 -14.40625 Z M 4.09375 -14.40625 "/></g></g></g><g fill="#264e86" fill-opacity="1"><g transform="translate(671.093263, 326.722288)"><g><path d="M 10.78125 -11.28125 L 9.375 -11.28125 C 9.375 -11.988281 9.097656 -12.535156 8.546875 -12.921875 C 8.003906 -13.316406 7.238281 -13.515625 6.25 -13.515625 C 5.3125 -13.515625 4.515625 -13.28125 3.859375 -12.8125 C 3.210938 -12.34375 2.890625 -11.738281 2.890625 -11 C 2.890625 -10.257812 3.144531 -9.664062 3.65625 -9.21875 C 4.164062 -8.769531 4.984375 -8.363281 6.109375 -8 L 7.4375 -7.5625 C 8.832031 -7.113281 9.78125 -6.578125 10.28125 -5.953125 C 10.78125 -5.335938 11.03125 -4.617188 11.03125 -3.796875 C 11.03125 -2.335938 10.5 -1.289062 9.4375 -0.65625 C 8.375 -0.0195312 7.082031 0.296875 5.5625 0.296875 C 4.21875 0.296875 3.148438 -0.113281 2.359375 -0.9375 C 1.566406 -1.769531 1.164062 -2.707031 1.15625 -3.75 L 2.546875 -3.75 C 2.546875 -2.832031 2.84375 -2.132812 3.4375 -1.65625 C 4.03125 -1.175781 4.941406 -0.921875 6.171875 -0.890625 C 7.097656 -0.890625 7.90625 -1.144531 8.59375 -1.65625 C 9.289062 -2.175781 9.640625 -2.847656 9.640625 -3.671875 C 9.640625 -4.390625 9.398438 -4.953125 8.921875 -5.359375 C 8.441406 -5.773438 7.476562 -6.195312 6.03125 -6.625 C 4.789062 -6.957031 3.722656 -7.457031 2.828125 -8.125 C 1.941406 -8.789062 1.5 -9.6875 1.5 -10.8125 C 1.5 -11.957031 1.945312 -12.890625 2.84375 -13.609375 C 3.738281 -14.335938 4.828125 -14.703125 6.109375 -14.703125 C 7.460938 -14.703125 8.546875 -14.398438 9.359375 -13.796875 C 10.179688 -13.203125 10.65625 -12.363281 10.78125 -11.28125 Z M 10.78125 -11.28125 "/></g></g></g><g fill="#264e86" fill-opacity="1"><g transform="translate(683.284036, 326.722288)"><g/></g></g><g fill="#264e86" fill-opacity="1"><g transform="translate(688.830743, 326.722288)"><g><path d="M 5.984375 -14.40625 C 7.804688 -14.40625 9.179688 -14.054688 10.109375 -13.359375 C 11.035156 -12.671875 11.5 -11.660156 11.5 -10.328125 C 11.5 -8.972656 11.023438 -7.957031 10.078125 -7.28125 C 9.128906 -6.601562 7.753906 -6.265625 5.953125 -6.265625 L 3.296875 -6.265625 L 3.296875 0 L 2 0 L 2 -14.40625 Z M 6.546875 -7.46875 C 7.691406 -7.46875 8.566406 -7.707031 9.171875 -8.1875 C 9.785156 -8.664062 10.09375 -9.378906 10.09375 -10.328125 C 10.09375 -12.242188 8.867188 -13.203125 6.421875 -13.203125 L 3.296875 -13.203125 L 3.296875 -7.46875 Z M 6.546875 -7.46875 "/></g></g></g><g fill="#264e86" fill-opacity="1"><g transform="translate(701.021481, 326.722288)"><g><path d="M 14.1875 -7.203125 C 14.1875 -4.910156 13.617188 -3.085938 12.484375 -1.734375 C 11.359375 -0.390625 9.785156 0.285156 7.765625 0.296875 C 5.742188 0.296875 4.171875 -0.375 3.046875 -1.71875 C 1.929688 -3.070312 1.363281 -4.898438 1.34375 -7.203125 C 1.34375 -9.503906 1.90625 -11.328125 3.03125 -12.671875 C 4.164062 -14.015625 5.742188 -14.691406 7.765625 -14.703125 C 9.785156 -14.703125 11.359375 -14.023438 12.484375 -12.671875 C 13.609375 -11.316406 14.175781 -9.492188 14.1875 -7.203125 Z M 7.765625 -0.890625 C 9.328125 -0.890625 10.554688 -1.472656 11.453125 -2.640625 C 12.347656 -3.816406 12.796875 -5.335938 12.796875 -7.203125 C 12.796875 -9.117188 12.34375 -10.648438 11.4375 -11.796875 C 10.539062 -12.941406 9.304688 -13.515625 7.734375 -13.515625 C 6.210938 -13.515625 5.003906 -12.941406 4.109375 -11.796875 C 3.222656 -10.648438 2.765625 -9.117188 2.734375 -7.203125 C 2.734375 -5.367188 3.164062 -3.863281 4.03125 -2.6875 C 4.90625 -1.519531 6.148438 -0.921875 7.765625 -0.890625 Z M 7.765625 -0.890625 "/></g></g></g><g fill="#264e86" fill-opacity="1"><g transform="translate(716.544249, 326.722288)"><g><path d="M 10.8125 -14.40625 L 10.8125 -13.203125 L 6.25 -13.203125 L 6.21875 0 L 4.953125 0 L 4.921875 -13.203125 L 0.28125 -13.203125 L 0.28125 -14.40625 Z M 10.8125 -14.40625 "/></g></g></g><g fill="#264e86" fill-opacity="1"><g transform="translate(727.637663, 326.722288)"><g><path d="M 10.59375 -14.40625 L 10.59375 -13.203125 L 3.328125 -13.203125 L 3.328125 -8.046875 L 10.3125 -8.046875 L 10.3125 -6.84375 L 3.328125 -6.84375 L 3.328125 -1.203125 L 10.890625 -1.203125 L 10.890625 0 L 2.03125 0 L 2.03125 -14.40625 Z M 10.59375 -14.40625 "/></g></g></g><g fill="#264e86" fill-opacity="1"><g transform="translate(739.828401, 326.722288)"><g><path d="M 3.3125 -14.40625 L 11.25 -1.734375 L 11.296875 -1.734375 L 11.296875 -14.40625 L 12.59375 -14.40625 L 12.59375 0 L 10.953125 0 L 3.171875 -12.453125 L 3.125 -12.453125 L 3.125 0 L 1.828125 0 L 1.828125 -14.40625 Z M 3.3125 -14.40625 "/></g></g></g><g fill="#264e86" fill-opacity="1"><g transform="translate(754.233851, 326.722288)"><g><path d="M 10.8125 -14.40625 L 10.8125 -13.203125 L 6.25 -13.203125 L 6.21875 0 L 4.953125 0 L 4.921875 -13.203125 L 0.28125 -13.203125 L 0.28125 -14.40625 Z M 10.8125 -14.40625 "/></g></g></g><g fill="#264e86" fill-opacity="1"><g transform="translate(765.32723, 326.722288)"><g><path d="M 3.4375 -14.46875 L 3.4375 0 L 2.140625 0 L 2.140625 -14.46875 Z M 3.4375 -14.46875 "/></g></g></g><g fill="#264e86" fill-opacity="1"><g transform="translate(770.873937, 326.722288)"><g><path d="M 7.40625 -14.40625 L 13.15625 0 L 11.734375 0 L 10.203125 -3.890625 L 3.03125 -3.890625 L 1.515625 0 L 0.171875 0 L 5.890625 -14.40625 Z M 3.453125 -5.09375 L 9.734375 -5.09375 L 6.625 -13.203125 Z M 3.453125 -5.09375 "/></g></g></g><g fill="#264e86" fill-opacity="1"><g transform="translate(784.182028, 326.722288)"><g><path d="M 3.296875 -14.40625 L 3.296875 -1.203125 L 10.53125 -1.203125 L 10.53125 0 L 2 0 L 2 -14.40625 Z M 3.296875 -14.40625 "/></g></g></g></svg>