<svg xmlns="http://www.w3.org/2000/svg" xmlns:xlink="http://www.w3.org/1999/xlink" width="1366" zoomAndPan="magnify" viewBox="0 0 1024.5 576" height="768" preserveAspectRatio="xMidYMid meet" version="1.0"><defs><g/><clipPath id="9a5cbcaa78"><path d="M 7.433594 358 L 256.40625 358 L 256.40625 388.824219 L 7.433594 388.824219 Z M 7.433594 358 " clip-rule="nonzero"/></clipPath><clipPath id="94e647bbf7"><path d="M 65 186.535156 L 120 186.535156 L 120 360 L 65 360 Z M 65 186.535156 " clip-rule="nonzero"/></clipPath></defs><g clip-path="url(#9a5cbcaa78)"><path fill="#f5793b" d="M 7.644531 382.179688 C 61.375 342.757812 197.9375 359.46875 256.183594 378.160156 C 146.988281 356.65625 61.621094 353.1875 12.933594 389.472656 Z M 7.644531 382.179688 " fill-opacity="1" fill-rule="evenodd"/></g><g clip-path="url(#94e647bbf7)"><path fill="#f5793b" d="M 83.238281 359.835938 L 65.746094 230.882812 L 111.5625 186.535156 L 119.628906 358.148438 L 118.117188 358.136719 L 100.347656 208.734375 L 70.277344 233.320312 L 84.164062 359.75 Z M 83.238281 359.835938 " fill-opacity="1" fill-rule="evenodd"/></g><path fill="#f5793b" d="M 154.039062 266.261719 L 155.027344 220.894531 L 124.824219 193.761719 L 148.453125 223.957031 L 149.074219 269.90625 Z M 154.039062 266.261719 " fill-opacity="1" fill-rule="evenodd"/><path fill="#f5793b" d="M 175.015625 361.800781 L 176.21875 319.597656 L 171.066406 361.351562 Z M 145.015625 359.089844 L 143.105469 274.28125 L 179.179688 247.816406 L 177.074219 305.453125 L 172.140625 260.703125 L 147.246094 275.558594 L 145.683594 359.128906 Z M 145.015625 359.089844 " fill-opacity="1" fill-rule="evenodd"/><path fill="#f5793b" d="M 199.945312 368.476562 L 209.070312 270.628906 L 179.179688 247.816406 L 204.40625 271.976562 L 198.335938 368.246094 Z M 199.945312 368.476562 " fill-opacity="1" fill-rule="evenodd"/><g fill="#264e86" fill-opacity="1"><g transform="translate(282.821256, 290.987958)"><g><path d="M 24.78125 -80.734375 L 24.78125 -48.453125 L 55.265625 -48.453125 L 55.265625 -80.734375 L 72.796875 -80.734375 L 72.796875 0 L 55.5 0 L 55.5 -35.390625 L 24.78125 -35.390625 L 24.78125 0 L 7.484375 0 L 7.484375 -80.734375 Z M 24.78125 -80.734375 "/></g></g></g><g fill="#264e86" fill-opacity="1"><g transform="translate(363.422687, 290.987958)"><g><path d="M 62.296875 -80.734375 L 62.296875 -67.546875 L 25.5625 -67.546875 L 25.5625 -48.34375 L 59.953125 -48.34375 L 59.953125 -35.171875 L 25.5625 -35.171875 L 25.5625 -13.40625 L 63.53125 -13.40625 L 63.53125 0 L 8.265625 0 L 8.265625 -80.734375 Z M 62.296875 -80.734375 "/></g></g></g><g fill="#264e86" fill-opacity="1"><g transform="translate(431.632515, 290.987958)"><g><path d="M 25.34375 -80.609375 L 25.34375 -13.734375 L 59.953125 -13.734375 L 59.953125 0 L 7.703125 0 L 7.703125 -80.609375 Z M 25.34375 -80.609375 "/></g></g></g><g fill="#264e86" fill-opacity="1"><g transform="translate(493.70233, 290.987958)"><g><path d="M 24 -80.953125 L 24 0 L 6.703125 0 L 6.703125 -80.953125 Z M 24 -80.953125 "/></g></g></g><g fill="#264e86" fill-opacity="1"><g transform="translate(524.737275, 290.987958)"><g><path d="M 82.171875 -41.09375 C 82.171875 -27.84375 78.75 -17.34375 71.90625 -9.59375 C 65.0625 -1.851562 55.609375 2.015625 43.546875 2.015625 C 31.335938 2.015625 21.828125 -1.613281 15.015625 -8.875 C 8.203125 -16.132812 4.796875 -26.273438 4.796875 -39.296875 C 4.796875 -52.703125 8.179688 -63.238281 14.953125 -70.90625 C 21.734375 -78.570312 31.265625 -82.40625 43.546875 -82.40625 C 56.203125 -82.40625 65.800781 -78.570312 72.34375 -70.90625 C 78.894531 -63.238281 82.171875 -53.300781 82.171875 -41.09375 Z M 43.21875 -10.71875 C 50.582031 -10.71875 55.898438 -13.472656 59.171875 -18.984375 C 62.453125 -24.492188 64.09375 -32.007812 64.09375 -41.53125 C 64.09375 -50.164062 62.320312 -57.070312 58.78125 -62.25 C 55.25 -67.425781 50.242188 -70.015625 43.765625 -70.015625 C 36.921875 -70.015625 31.726562 -67.460938 28.1875 -62.359375 C 24.65625 -57.265625 22.890625 -50.023438 22.890625 -40.640625 C 22.890625 -30.585938 24.640625 -23.085938 28.140625 -18.140625 C 31.640625 -13.191406 36.664062 -10.71875 43.21875 -10.71875 Z M 43.21875 -10.71875 "/></g></g></g><g fill="#264e86" fill-opacity="1"><g transform="translate(611.590371, 290.987958)"><g><path d="M 20.203125 -80.390625 L 41.3125 -17.078125 L 62.53125 -80.390625 L 79.609375 -80.390625 L 49.90625 0 L 31.046875 0 L 1.34375 -80.390625 Z M 20.203125 -80.390625 "/></g></g></g><g fill="#264e86" fill-opacity="1"><g transform="translate(692.191801, 290.987958)"><g><path d="M 24 -80.953125 L 24 0 L 6.703125 0 L 6.703125 -80.953125 Z M 24 -80.953125 "/></g></g></g><g fill="#264e86" fill-opacity="1"><g transform="translate(723.226746, 290.987958)"><g><path d="M 62.296875 -80.734375 L 62.296875 -67.546875 L 25.5625 -67.546875 L 25.5625 -48.34375 L 59.953125 -48.34375 L 59.953125 -35.171875 L 25.5625 -35.171875 L 25.5625 -13.40625 L 63.53125 -13.40625 L 63.53125 0 L 8.265625 0 L 8.265625 -80.734375 Z M 62.296875 -80.734375 "/></g></g></g><g fill="#264e86" fill-opacity="1"><g transform="translate(791.436574, 290.987958)"><g><path d="M 19.546875 -80.390625 L 32.046875 -20.09375 L 47.78125 -80.390625 L 67.328125 -80.390625 L 81.515625 -20.09375 L 94.578125 -80.390625 L 111.09375 -80.390625 L 90.546875 0.21875 L 71.34375 0.21875 L 56.71875 -61.40625 L 40.984375 0.21875 L 21.328125 0.21875 L 1.671875 -80.390625 Z M 19.546875 -80.390625 "/></g></g></g><g fill="#264e86" fill-opacity="1"><g transform="translate(903.072949, 290.987958)"><g><path d="M 67.328125 -58.171875 L 67.328125 -57.609375 L 50.6875 -57.609375 L 50.6875 -58.171875 C 50.320312 -61.890625 49.039062 -64.769531 46.84375 -66.8125 C 44.644531 -68.863281 41.570312 -69.890625 37.625 -69.890625 C 33.757812 -69.890625 30.578125 -68.941406 28.078125 -67.046875 C 25.585938 -65.148438 24.34375 -62.453125 24.34375 -58.953125 C 24.34375 -55.078125 26.128906 -52.394531 29.703125 -50.90625 C 33.273438 -49.425781 38.484375 -47.90625 45.328125 -46.34375 C 54.117188 -44.40625 60.351562 -41.664062 64.03125 -38.125 C 67.71875 -34.59375 69.5625 -30 69.5625 -24.34375 C 69.5625 -16.445312 66.394531 -10.097656 60.0625 -5.296875 C 53.738281 -0.503906 45.550781 1.890625 35.5 1.890625 C 24.632812 1.890625 16.648438 -0.375 11.546875 -4.90625 C 6.453125 -9.445312 3.90625 -16.410156 3.90625 -25.796875 L 21.546875 -25.796875 L 21.546875 -25.125 C 21.546875 -20.0625 22.8125 -16.359375 25.34375 -14.015625 C 27.875 -11.671875 31.484375 -10.5 36.171875 -10.5 C 40.492188 -10.5 44.125 -11.460938 47.0625 -13.390625 C 50 -15.328125 51.46875 -18.160156 51.46875 -21.890625 C 51.46875 -24.191406 50.796875 -26.085938 49.453125 -27.578125 C 48.117188 -29.066406 43.878906 -30.703125 36.734375 -32.484375 C 24.148438 -35.535156 15.957031 -39.015625 12.15625 -42.921875 C 8.363281 -46.835938 6.46875 -51.507812 6.46875 -56.9375 C 6.46875 -64.757812 9.316406 -70.898438 15.015625 -75.359375 C 20.710938 -79.828125 28.507812 -82.0625 38.40625 -82.0625 C 47.34375 -82.0625 54.394531 -79.957031 59.5625 -75.75 C 64.738281 -71.550781 67.328125 -65.691406 67.328125 -58.171875 Z M 67.328125 -58.171875 "/></g></g></g><g fill="#264e86" fill-opacity="1"><g transform="translate(282.821256, 354.982368)"><g><path d="M 5.9375 -25.03125 L 5.9375 0 L 3.6875 0 L 3.6875 -25.03125 Z M 5.9375 -25.03125 "/></g></g></g><g fill="#264e86" fill-opacity="1"><g transform="translate(292.416008, 354.982368)"><g><path d="M 5.6875 -24.921875 L 5.6875 -2.078125 L 18.21875 -2.078125 L 18.21875 0 L 3.453125 0 L 3.453125 -24.921875 Z M 5.6875 -24.921875 "/></g></g></g><g fill="#264e86" fill-opacity="1"><g transform="translate(311.605542, 354.982368)"><g><path d="M 5.6875 -24.921875 L 5.6875 -2.078125 L 18.21875 -2.078125 L 18.21875 0 L 3.453125 0 L 3.453125 -24.921875 Z M 5.6875 -24.921875 "/></g></g></g><g fill="#264e86" fill-opacity="1"><g transform="translate(330.795076, 354.982368)"><g><path d="M 5.59375 -24.921875 L 5.59375 -9.078125 C 5.59375 -6.816406 6.210938 -4.992188 7.453125 -3.609375 C 8.691406 -2.234375 10.359375 -1.546875 12.453125 -1.546875 C 14.597656 -1.546875 16.28125 -2.226562 17.5 -3.59375 C 18.71875 -4.96875 19.328125 -6.832031 19.328125 -9.1875 L 19.328125 -24.921875 L 21.578125 -24.921875 L 21.578125 -9.046875 C 21.578125 -6.117188 20.78125 -3.789062 19.1875 -2.0625 C 17.601562 -0.34375 15.359375 0.515625 12.453125 0.515625 C 9.578125 0.515625 7.335938 -0.332031 5.734375 -2.03125 C 4.140625 -3.738281 3.34375 -6.050781 3.34375 -8.96875 L 3.34375 -24.921875 Z M 5.59375 -24.921875 "/></g></g></g><g fill="#264e86" fill-opacity="1"><g transform="translate(355.713853, 354.982368)"><g><path d="M 6.9375 -24.921875 L 16.296875 -3.203125 L 25.859375 -24.921875 L 29.265625 -24.921875 L 29.265625 0 L 27.03125 0 L 27.03125 -23.015625 L 26.953125 -23.015625 L 17.4375 0 L 15.1875 0 L 5.65625 -22.921875 L 5.59375 -22.921875 L 5.59375 0 L 3.34375 0 L 3.34375 -24.921875 Z M 6.9375 -24.921875 "/></g></g></g><g fill="#264e86" fill-opacity="1"><g transform="translate(388.294627, 354.982368)"><g><path d="M 5.9375 -25.03125 L 5.9375 0 L 3.6875 0 L 3.6875 -25.03125 Z M 5.9375 -25.03125 "/></g></g></g><g fill="#264e86" fill-opacity="1"><g transform="translate(397.889379, 354.982368)"><g><path d="M 5.734375 -24.921875 L 19.46875 -3 L 19.53125 -3 L 19.53125 -24.921875 L 21.78125 -24.921875 L 21.78125 0 L 18.953125 0 L 5.484375 -21.53125 L 5.421875 -21.53125 L 5.421875 0 L 3.171875 0 L 3.171875 -24.921875 Z M 5.734375 -24.921875 "/></g></g></g><g fill="#264e86" fill-opacity="1"><g transform="translate(422.808155, 354.982368)"><g><path d="M 12.8125 -24.921875 L 22.75 0 L 20.296875 0 L 17.640625 -6.734375 L 5.25 -6.734375 L 2.625 0 L 0.3125 0 L 10.1875 -24.921875 Z M 5.96875 -8.796875 L 16.84375 -8.796875 L 11.453125 -22.84375 Z M 5.96875 -8.796875 "/></g></g></g><g fill="#264e86" fill-opacity="1"><g transform="translate(445.828673, 354.982368)"><g><path d="M 18.703125 -24.921875 L 18.703125 -22.84375 L 10.796875 -22.84375 L 10.765625 0 L 8.5625 0 L 8.53125 -22.84375 L 0.484375 -22.84375 L 0.484375 -24.921875 Z M 18.703125 -24.921875 "/></g></g></g><g fill="#264e86" fill-opacity="1"><g transform="translate(465.018207, 354.982368)"><g><path d="M 18.328125 -24.921875 L 18.328125 -22.84375 L 5.765625 -22.84375 L 5.765625 -13.90625 L 17.84375 -13.90625 L 17.84375 -11.84375 L 5.765625 -11.84375 L 5.765625 -2.078125 L 18.84375 -2.078125 L 18.84375 0 L 3.515625 0 L 3.515625 -24.921875 Z M 18.328125 -24.921875 "/></g></g></g><g fill="#264e86" fill-opacity="1"><g transform="translate(486.10597, 354.982368)"><g/></g></g><g fill="#264e86" fill-opacity="1"><g transform="translate(495.700721, 354.982368)"><g><path d="M 3.140625 -24.921875 L 10.765625 -12.875 L 18.390625 -24.921875 L 20.8125 -24.921875 L 11.703125 -10.84375 L 11.703125 0 L 9.453125 0 L 9.453125 -10.765625 L 0.28125 -24.921875 Z M 3.140625 -24.921875 "/></g></g></g><g fill="#264e86" fill-opacity="1"><g transform="translate(516.788484, 354.982368)"><g><path d="M 24.546875 -12.453125 C 24.546875 -8.503906 23.566406 -5.359375 21.609375 -3.015625 C 19.648438 -0.679688 16.921875 0.492188 13.421875 0.515625 C 9.929688 0.515625 7.21875 -0.648438 5.28125 -2.984375 C 3.34375 -5.316406 2.351562 -8.472656 2.3125 -12.453125 C 2.3125 -16.441406 3.289062 -19.597656 5.25 -21.921875 C 7.207031 -24.242188 9.929688 -25.414062 13.421875 -25.4375 C 16.921875 -25.4375 19.640625 -24.257812 21.578125 -21.90625 C 23.523438 -19.5625 24.515625 -16.410156 24.546875 -12.453125 Z M 13.421875 -1.546875 C 16.140625 -1.546875 18.269531 -2.554688 19.8125 -4.578125 C 21.351562 -6.609375 22.125 -9.234375 22.125 -12.453125 C 22.125 -15.773438 21.347656 -18.421875 19.796875 -20.390625 C 18.242188 -22.367188 16.109375 -23.359375 13.390625 -23.359375 C 10.742188 -23.359375 8.648438 -22.367188 7.109375 -20.390625 C 5.566406 -18.421875 4.773438 -15.773438 4.734375 -12.453125 C 4.734375 -9.285156 5.484375 -6.6875 6.984375 -4.65625 C 8.492188 -2.632812 10.640625 -1.597656 13.421875 -1.546875 Z M 13.421875 -1.546875 "/></g></g></g><g fill="#264e86" fill-opacity="1"><g transform="translate(543.640016, 354.982368)"><g><path d="M 5.59375 -24.921875 L 5.59375 -9.078125 C 5.59375 -6.816406 6.210938 -4.992188 7.453125 -3.609375 C 8.691406 -2.234375 10.359375 -1.546875 12.453125 -1.546875 C 14.597656 -1.546875 16.28125 -2.226562 17.5 -3.59375 C 18.71875 -4.96875 19.328125 -6.832031 19.328125 -9.1875 L 19.328125 -24.921875 L 21.578125 -24.921875 L 21.578125 -9.046875 C 21.578125 -6.117188 20.78125 -3.789062 19.1875 -2.0625 C 17.601562 -0.34375 15.359375 0.515625 12.453125 0.515625 C 9.578125 0.515625 7.335938 -0.332031 5.734375 -2.03125 C 4.140625 -3.738281 3.34375 -6.050781 3.34375 -8.96875 L 3.34375 -24.921875 Z M 5.59375 -24.921875 "/></g></g></g><g fill="#264e86" fill-opacity="1"><g transform="translate(568.558792, 354.982368)"><g><path d="M 12.21875 -24.921875 C 14.707031 -24.921875 16.644531 -24.375 18.03125 -23.28125 C 19.425781 -22.1875 20.125 -20.570312 20.125 -18.4375 C 20.125 -17.125 19.703125 -15.992188 18.859375 -15.046875 C 18.023438 -14.109375 16.847656 -13.441406 15.328125 -13.046875 L 15.328125 -12.984375 C 16.753906 -12.742188 17.800781 -12.128906 18.46875 -11.140625 C 19.132812 -10.160156 19.539062 -8.257812 19.6875 -5.4375 C 19.84375 -2.613281 20.21875 -0.800781 20.8125 0 L 18.21875 0 C 17.78125 -1.101562 17.472656 -2.945312 17.296875 -5.53125 C 17.128906 -8.125 16.757812 -9.828125 16.1875 -10.640625 C 15.613281 -11.460938 14.289062 -11.875 12.21875 -11.875 L 5.796875 -11.875 L 5.796875 0 L 3.5625 0 L 3.5625 -24.921875 Z M 11.046875 -13.9375 C 13.410156 -13.9375 15.109375 -14.289062 16.140625 -15 C 17.179688 -15.71875 17.703125 -16.847656 17.703125 -18.390625 C 17.703125 -19.929688 17.25 -21.054688 16.34375 -21.765625 C 15.4375 -22.484375 14.082031 -22.84375 12.28125 -22.84375 L 5.796875 -22.84375 L 5.796875 -13.9375 Z M 11.046875 -13.9375 "/></g></g></g><g fill="#264e86" fill-opacity="1"><g transform="translate(591.57931, 354.982368)"><g/></g></g><g fill="#264e86" fill-opacity="1"><g transform="translate(601.174061, 354.982368)"><g><path d="M 10.359375 -24.921875 C 13.503906 -24.921875 15.875 -24.320312 17.46875 -23.125 C 19.070312 -21.925781 19.875 -20.175781 19.875 -17.875 C 19.875 -15.53125 19.054688 -13.769531 17.421875 -12.59375 C 15.796875 -11.425781 13.414062 -10.84375 10.28125 -10.84375 L 5.6875 -10.84375 L 5.6875 0 L 3.453125 0 L 3.453125 -24.921875 Z M 11.328125 -12.90625 C 13.304688 -12.90625 14.820312 -13.316406 15.875 -14.140625 C 16.9375 -14.972656 17.46875 -16.21875 17.46875 -17.875 C 17.46875 -21.1875 15.347656 -22.84375 11.109375 -22.84375 L 5.6875 -22.84375 L 5.6875 -12.90625 Z M 11.328125 -12.90625 "/></g></g></g><g fill="#264e86" fill-opacity="1"><g transform="translate(622.261824, 354.982368)"><g><path d="M 12.21875 -24.921875 C 14.707031 -24.921875 16.644531 -24.375 18.03125 -23.28125 C 19.425781 -22.1875 20.125 -20.570312 20.125 -18.4375 C 20.125 -17.125 19.703125 -15.992188 18.859375 -15.046875 C 18.023438 -14.109375 16.847656 -13.441406 15.328125 -13.046875 L 15.328125 -12.984375 C 16.753906 -12.742188 17.800781 -12.128906 18.46875 -11.140625 C 19.132812 -10.160156 19.539062 -8.257812 19.6875 -5.4375 C 19.84375 -2.613281 20.21875 -0.800781 20.8125 0 L 18.21875 0 C 17.78125 -1.101562 17.472656 -2.945312 17.296875 -5.53125 C 17.128906 -8.125 16.757812 -9.828125 16.1875 -10.640625 C 15.613281 -11.460938 14.289062 -11.875 12.21875 -11.875 L 5.796875 -11.875 L 5.796875 0 L 3.5625 0 L 3.5625 -24.921875 Z M 11.046875 -13.9375 C 13.410156 -13.9375 15.109375 -14.289062 16.140625 -15 C 17.179688 -15.71875 17.703125 -16.847656 17.703125 -18.390625 C 17.703125 -19.929688 17.25 -21.054688 16.34375 -21.765625 C 15.4375 -22.484375 14.082031 -22.84375 12.28125 -22.84375 L 5.796875 -22.84375 L 5.796875 -13.9375 Z M 11.046875 -13.9375 "/></g></g></g><g fill="#264e86" fill-opacity="1"><g transform="translate(645.282342, 354.982368)"><g><path d="M 24.546875 -12.453125 C 24.546875 -8.503906 23.566406 -5.359375 21.609375 -3.015625 C 19.648438 -0.679688 16.921875 0.492188 13.421875 0.515625 C 9.929688 0.515625 7.21875 -0.648438 5.28125 -2.984375 C 3.34375 -5.316406 2.351562 -8.472656 2.3125 -12.453125 C 2.3125 -16.441406 3.289062 -19.597656 5.25 -21.921875 C 7.207031 -24.242188 9.929688 -25.414062 13.421875 -25.4375 C 16.921875 -25.4375 19.640625 -24.257812 21.578125 -21.90625 C 23.523438 -19.5625 24.515625 -16.410156 24.546875 -12.453125 Z M 13.421875 -1.546875 C 16.140625 -1.546875 18.269531 -2.554688 19.8125 -4.578125 C 21.351562 -6.609375 22.125 -9.234375 22.125 -12.453125 C 22.125 -15.773438 21.347656 -18.421875 19.796875 -20.390625 C 18.242188 -22.367188 16.109375 -23.359375 13.390625 -23.359375 C 10.742188 -23.359375 8.648438 -22.367188 7.109375 -20.390625 C 5.566406 -18.421875 4.773438 -15.773438 4.734375 -12.453125 C 4.734375 -9.285156 5.484375 -6.6875 6.984375 -4.65625 C 8.492188 -2.632812 10.640625 -1.597656 13.421875 -1.546875 Z M 13.421875 -1.546875 "/></g></g></g><g fill="#264e86" fill-opacity="1"><g transform="translate(672.133873, 354.982368)"><g><path d="M 10.359375 -24.921875 C 13.503906 -24.921875 15.875 -24.320312 17.46875 -23.125 C 19.070312 -21.925781 19.875 -20.175781 19.875 -17.875 C 19.875 -15.53125 19.054688 -13.769531 17.421875 -12.59375 C 15.796875 -11.425781 13.414062 -10.84375 10.28125 -10.84375 L 5.6875 -10.84375 L 5.6875 0 L 3.453125 0 L 3.453125 -24.921875 Z M 11.328125 -12.90625 C 13.304688 -12.90625 14.820312 -13.316406 15.875 -14.140625 C 16.9375 -14.972656 17.46875 -16.21875 17.46875 -17.875 C 17.46875 -21.1875 15.347656 -22.84375 11.109375 -22.84375 L 5.6875 -22.84375 L 5.6875 -12.90625 Z M 11.328125 -12.90625 "/></g></g></g><g fill="#264e86" fill-opacity="1"><g transform="translate(693.221636, 354.982368)"><g><path d="M 18.328125 -24.921875 L 18.328125 -22.84375 L 5.765625 -22.84375 L 5.765625 -13.90625 L 17.84375 -13.90625 L 17.84375 -11.84375 L 5.765625 -11.84375 L 5.765625 -2.078125 L 18.84375 -2.078125 L 18.84375 0 L 3.515625 0 L 3.515625 -24.921875 Z M 18.328125 -24.921875 "/></g></g></g><g fill="#264e86" fill-opacity="1"><g transform="translate(714.309399, 354.982368)"><g><path d="M 12.21875 -24.921875 C 14.707031 -24.921875 16.644531 -24.375 18.03125 -23.28125 C 19.425781 -22.1875 20.125 -20.570312 20.125 -18.4375 C 20.125 -17.125 19.703125 -15.992188 18.859375 -15.046875 C 18.023438 -14.109375 16.847656 -13.441406 15.328125 -13.046875 L 15.328125 -12.984375 C 16.753906 -12.742188 17.800781 -12.128906 18.46875 -11.140625 C 19.132812 -10.160156 19.539062 -8.257812 19.6875 -5.4375 C 19.84375 -2.613281 20.21875 -0.800781 20.8125 0 L 18.21875 0 C 17.78125 -1.101562 17.472656 -2.945312 17.296875 -5.53125 C 17.128906 -8.125 16.757812 -9.828125 16.1875 -10.640625 C 15.613281 -11.460938 14.289062 -11.875 12.21875 -11.875 L 5.796875 -11.875 L 5.796875 0 L 3.5625 0 L 3.5625 -24.921875 Z M 11.046875 -13.9375 C 13.410156 -13.9375 15.109375 -14.289062 16.140625 -15 C 17.179688 -15.71875 17.703125 -16.847656 17.703125 -18.390625 C 17.703125 -19.929688 17.25 -21.054688 16.34375 -21.765625 C 15.4375 -22.484375 14.082031 -22.84375 12.28125 -22.84375 L 5.796875 -22.84375 L 5.796875 -13.9375 Z M 11.046875 -13.9375 "/></g></g></g><g fill="#264e86" fill-opacity="1"><g transform="translate(737.329916, 354.982368)"><g><path d="M 18.703125 -24.921875 L 18.703125 -22.84375 L 10.796875 -22.84375 L 10.765625 0 L 8.5625 0 L 8.53125 -22.84375 L 0.484375 -22.84375 L 0.484375 -24.921875 Z M 18.703125 -24.921875 "/></g></g></g><g fill="#264e86" fill-opacity="1"><g transform="translate(756.51945, 354.982368)"><g><path d="M 3.140625 -24.921875 L 10.765625 -12.875 L 18.390625 -24.921875 L 20.8125 -24.921875 L 11.703125 -10.84375 L 11.703125 0 L 9.453125 0 L 9.453125 -10.765625 L 0.28125 -24.921875 Z M 3.140625 -24.921875 "/></g></g></g><g fill="#264e86" fill-opacity="1"><g transform="translate(777.607213, 354.982368)"><g><path d="M 7.078125 -24.921875 L 4.59375 -17.84375 L 2.796875 -17.84375 L 4.28125 -24.921875 Z M 7.078125 -24.921875 "/></g></g></g><g fill="#264e86" fill-opacity="1"><g transform="translate(787.201965, 354.982368)"><g><path d="M 18.640625 -19.5 L 16.21875 -19.5 C 16.21875 -20.738281 15.742188 -21.691406 14.796875 -22.359375 C 13.859375 -23.023438 12.523438 -23.359375 10.796875 -23.359375 C 9.191406 -23.359375 7.820312 -22.957031 6.6875 -22.15625 C 5.5625 -21.351562 5 -20.304688 5 -19.015625 C 5 -17.753906 5.441406 -16.726562 6.328125 -15.9375 C 7.210938 -15.15625 8.625 -14.457031 10.5625 -13.84375 L 12.875 -13.078125 C 15.289062 -12.296875 16.929688 -11.367188 17.796875 -10.296875 C 18.660156 -9.234375 19.09375 -7.988281 19.09375 -6.5625 C 19.09375 -4.050781 18.171875 -2.242188 16.328125 -1.140625 C 14.484375 -0.0351562 12.25 0.515625 9.625 0.515625 C 7.300781 0.515625 5.453125 -0.203125 4.078125 -1.640625 C 2.710938 -3.078125 2.019531 -4.691406 2 -6.484375 L 4.421875 -6.484375 C 4.421875 -4.898438 4.929688 -3.691406 5.953125 -2.859375 C 6.972656 -2.035156 8.546875 -1.597656 10.671875 -1.546875 C 12.273438 -1.546875 13.675781 -1.988281 14.875 -2.875 C 16.070312 -3.757812 16.671875 -4.914062 16.671875 -6.34375 C 16.671875 -7.59375 16.253906 -8.570312 15.421875 -9.28125 C 14.597656 -10 12.929688 -10.722656 10.421875 -11.453125 C 8.285156 -12.035156 6.445312 -12.898438 4.90625 -14.046875 C 3.363281 -15.203125 2.59375 -16.753906 2.59375 -18.703125 C 2.59375 -20.679688 3.367188 -22.296875 4.921875 -23.546875 C 6.472656 -24.804688 8.351562 -25.4375 10.5625 -25.4375 C 12.90625 -25.4375 14.785156 -24.914062 16.203125 -23.875 C 17.617188 -22.84375 18.429688 -21.382812 18.640625 -19.5 Z M 18.640625 -19.5 "/></g></g></g><g fill="#264e86" fill-opacity="1"><g transform="translate(808.289759, 354.982368)"><g/></g></g><g fill="#264e86" fill-opacity="1"><g transform="translate(817.884541, 354.982368)"><g><path d="M 10.359375 -24.921875 C 13.503906 -24.921875 15.875 -24.320312 17.46875 -23.125 C 19.070312 -21.925781 19.875 -20.175781 19.875 -17.875 C 19.875 -15.53125 19.054688 -13.769531 17.421875 -12.59375 C 15.796875 -11.425781 13.414062 -10.84375 10.28125 -10.84375 L 5.6875 -10.84375 L 5.6875 0 L 3.453125 0 L 3.453125 -24.921875 Z M 11.328125 -12.90625 C 13.304688 -12.90625 14.820312 -13.316406 15.875 -14.140625 C 16.9375 -14.972656 17.46875 -16.21875 17.46875 -17.875 C 17.46875 -21.1875 15.347656 -22.84375 11.109375 -22.84375 L 5.6875 -22.84375 L 5.6875 -12.90625 Z M 11.328125 -12.90625 "/></g></g></g><g fill="#264e86" fill-opacity="1"><g transform="translate(838.972273, 354.982368)"><g><path d="M 24.546875 -12.453125 C 24.546875 -8.503906 23.566406 -5.359375 21.609375 -3.015625 C 19.648438 -0.679688 16.921875 0.492188 13.421875 0.515625 C 9.929688 0.515625 7.21875 -0.648438 5.28125 -2.984375 C 3.34375 -5.316406 2.351562 -8.472656 2.3125 -12.453125 C 2.3125 -16.441406 3.289062 -19.597656 5.25 -21.921875 C 7.207031 -24.242188 9.929688 -25.414062 13.421875 -25.4375 C 16.921875 -25.4375 19.640625 -24.257812 21.578125 -21.90625 C 23.523438 -19.5625 24.515625 -16.410156 24.546875 -12.453125 Z M 13.421875 -1.546875 C 16.140625 -1.546875 18.269531 -2.554688 19.8125 -4.578125 C 21.351562 -6.609375 22.125 -9.234375 22.125 -12.453125 C 22.125 -15.773438 21.347656 -18.421875 19.796875 -20.390625 C 18.242188 -22.367188 16.109375 -23.359375 13.390625 -23.359375 C 10.742188 -23.359375 8.648438 -22.367188 7.109375 -20.390625 C 5.566406 -18.421875 4.773438 -15.773438 4.734375 -12.453125 C 4.734375 -9.285156 5.484375 -6.6875 6.984375 -4.65625 C 8.492188 -2.632812 10.640625 -1.597656 13.421875 -1.546875 Z M 13.421875 -1.546875 "/></g></g></g><g fill="#264e86" fill-opacity="1"><g transform="translate(865.823805, 354.982368)"><g><path d="M 18.703125 -24.921875 L 18.703125 -22.84375 L 10.796875 -22.84375 L 10.765625 0 L 8.5625 0 L 8.53125 -22.84375 L 0.484375 -22.84375 L 0.484375 -24.921875 Z M 18.703125 -24.921875 "/></g></g></g><g fill="#264e86" fill-opacity="1"><g transform="translate(885.013369, 354.982368)"><g><path d="M 18.328125 -24.921875 L 18.328125 -22.84375 L 5.765625 -22.84375 L 5.765625 -13.90625 L 17.84375 -13.90625 L 17.84375 -11.84375 L 5.765625 -11.84375 L 5.765625 -2.078125 L 18.84375 -2.078125 L 18.84375 0 L 3.515625 0 L 3.515625 -24.921875 Z M 18.328125 -24.921875 "/></g></g></g><g fill="#264e86" fill-opacity="1"><g transform="translate(906.101101, 354.982368)"><g><path d="M 5.734375 -24.921875 L 19.46875 -3 L 19.53125 -3 L 19.53125 -24.921875 L 21.78125 -24.921875 L 21.78125 0 L 18.953125 0 L 5.484375 -21.53125 L 5.421875 -21.53125 L 5.421875 0 L 3.171875 0 L 3.171875 -24.921875 Z M 5.734375 -24.921875 "/></g></g></g><g fill="#264e86" fill-opacity="1"><g transform="translate(931.019878, 354.982368)"><g><path d="M 18.703125 -24.921875 L 18.703125 -22.84375 L 10.796875 -22.84375 L 10.765625 0 L 8.5625 0 L 8.53125 -22.84375 L 0.484375 -22.84375 L 0.484375 -24.921875 Z M 18.703125 -24.921875 "/></g></g></g><g fill="#264e86" fill-opacity="1"><g transform="translate(950.209382, 354.982368)"><g><path d="M 5.9375 -25.03125 L 5.9375 0 L 3.6875 0 L 3.6875 -25.03125 Z M 5.9375 -25.03125 "/></g></g></g><g fill="#264e86" fill-opacity="1"><g transform="translate(959.804164, 354.982368)"><g><path d="M 12.8125 -24.921875 L 22.75 0 L 20.296875 0 L 17.640625 -6.734375 L 5.25 -6.734375 L 2.625 0 L 0.3125 0 L 10.1875 -24.921875 Z M 5.96875 -8.796875 L 16.84375 -8.796875 L 11.453125 -22.84375 Z M 5.96875 -8.796875 "/></g></g></g><g fill="#264e86" fill-opacity="1"><g transform="translate(982.824712, 354.982368)"><g><path d="M 5.6875 -24.921875 L 5.6875 -2.078125 L 18.21875 -2.078125 L 18.21875 0 L 3.453125 0 L 3.453125 -24.921875 Z M 5.6875 -24.921875 "/></g></g></g></svg>